<svg xmlns="http://www.w3.org/2000/svg" xmlns:xlink="http://www.w3.org/1999/xlink" width="500" zoomAndPan="magnify" viewBox="0 0 375 374.999991" height="500" preserveAspectRatio="xMidYMid meet" version="1.0"><defs><g/><clipPath id="9a29a80245"><path d="M 20.160156 166.308594 L 354.839844 166.308594 L 354.839844 206.523438 L 20.160156 206.523438 Z M 20.160156 166.308594 " clip-rule="nonzero"/></clipPath></defs><g fill="#fbfaf9" fill-opacity="1"><g transform="translate(73.820051, 246.790611)"><g><path d="M 95.625 0 L 46.953125 -58.796875 L 31.046875 -46.6875 L 31.046875 0 L 14.53125 0 L 14.53125 -121.828125 L 31.046875 -121.828125 L 31.046875 -60.78125 L 89.75 -121.828125 L 109.203125 -121.828125 L 57.328125 -68.90625 L 116.125 0 Z M 95.625 0 "/></g></g></g><g fill="#fbfaf9" fill-opacity="1"><g transform="translate(183.070551, 246.790611)"><g><path d="M 95.625 0 L 46.953125 -58.796875 L 31.046875 -46.6875 L 31.046875 0 L 14.53125 0 L 14.53125 -121.828125 L 31.046875 -121.828125 L 31.046875 -60.78125 L 89.75 -121.828125 L 109.203125 -121.828125 L 57.328125 -68.90625 L 116.125 0 Z M 95.625 0 "/></g></g></g><g clip-path="url(#9a29a80245)"><path fill="#242424" d="M 20.160156 166.308594 L 354.777344 166.308594 L 354.777344 207.8125 L 20.160156 207.8125 Z M 20.160156 166.308594 " fill-opacity="1" fill-rule="nonzero"/></g><g fill="#ffffff" fill-opacity="1"><g transform="translate(109.489402, 190.806194)"><g><path d="M 6.921875 0 L 4.078125 -3.828125 L 2.609375 -2.203125 L 2.609375 0 L 1.140625 0 L 1.140625 -8.671875 L 2.609375 -8.671875 L 2.609375 -4.1875 L 6.734375 -8.671875 L 8.46875 -8.671875 L 5.109375 -4.96875 L 8.6875 0 Z M 6.921875 0 "/></g></g></g><g fill="#ffffff" fill-opacity="1"><g transform="translate(128.305437, 190.806194)"><g><path d="M 6.734375 -1.953125 L 2.359375 -1.953125 L 1.53125 0 L 0.015625 0 L 3.84375 -8.671875 L 5.34375 -8.671875 L 9.125 0 L 7.578125 0 Z M 6.1875 -3.265625 L 4.546875 -7.109375 L 2.90625 -3.265625 Z M 6.1875 -3.265625 "/></g></g></g><g fill="#ffffff" fill-opacity="1"><g transform="translate(147.369182, 190.806194)"><g><path d="M 1.140625 -8.671875 L 4.703125 -8.671875 C 5.992188 -8.671875 7.0625 -8.257812 7.90625 -7.4375 C 8.757812 -6.625 9.1875 -5.585938 9.1875 -4.328125 C 9.1875 -3.078125 8.757812 -2.039062 7.90625 -1.21875 C 7.050781 -0.40625 5.96875 0 4.65625 0 L 1.140625 0 Z M 2.609375 -7.359375 L 2.609375 -1.3125 L 4.734375 -1.3125 C 5.585938 -1.3125 6.296875 -1.59375 6.859375 -2.15625 C 7.421875 -2.726562 7.703125 -3.453125 7.703125 -4.328125 C 7.703125 -5.203125 7.410156 -5.925781 6.828125 -6.5 C 6.242188 -7.070312 5.523438 -7.359375 4.671875 -7.359375 Z M 2.609375 -7.359375 "/></g></g></g><g fill="#ffffff" fill-opacity="1"><g transform="translate(166.89121, 190.806194)"><g><path d="M 7.328125 -7.359375 L 2.609375 -7.359375 L 2.609375 -5.015625 L 6.84375 -5.015625 L 6.84375 -3.703125 L 2.609375 -3.703125 L 2.609375 -1.3125 L 7.484375 -1.3125 L 7.484375 0 L 1.140625 0 L 1.140625 -8.671875 L 7.328125 -8.671875 Z M 7.328125 -7.359375 "/></g></g></g><g fill="#ffffff" fill-opacity="1"><g transform="translate(184.939312, 190.806194)"><g/></g></g><g fill="#ffffff" fill-opacity="1"><g transform="translate(198.057842, 190.806194)"><g><path d="M 6.921875 0 L 4.078125 -3.828125 L 2.609375 -2.203125 L 2.609375 0 L 1.140625 0 L 1.140625 -8.671875 L 2.609375 -8.671875 L 2.609375 -4.1875 L 6.734375 -8.671875 L 8.46875 -8.671875 L 5.109375 -4.96875 L 8.6875 0 Z M 6.921875 0 "/></g></g></g><g fill="#ffffff" fill-opacity="1"><g transform="translate(216.873877, 190.806194)"><g><path d="M 1.75 -7.4375 C 2.632812 -8.28125 3.722656 -8.703125 5.015625 -8.703125 C 6.316406 -8.703125 7.40625 -8.28125 8.28125 -7.4375 C 9.164062 -6.601562 9.609375 -5.566406 9.609375 -4.328125 C 9.609375 -3.097656 9.164062 -2.054688 8.28125 -1.203125 C 7.40625 -0.359375 6.316406 0.0625 5.015625 0.0625 C 3.722656 0.0625 2.632812 -0.359375 1.75 -1.203125 C 0.863281 -2.054688 0.421875 -3.097656 0.421875 -4.328125 C 0.421875 -5.566406 0.863281 -6.601562 1.75 -7.4375 Z M 5.03125 -7.390625 C 4.164062 -7.390625 3.425781 -7.09375 2.8125 -6.5 C 2.207031 -5.914062 1.90625 -5.191406 1.90625 -4.328125 C 1.90625 -3.472656 2.210938 -2.742188 2.828125 -2.140625 C 3.441406 -1.546875 4.175781 -1.25 5.03125 -1.25 C 5.882812 -1.25 6.609375 -1.546875 7.203125 -2.140625 C 7.804688 -2.742188 8.109375 -3.472656 8.109375 -4.328125 C 8.109375 -5.191406 7.804688 -5.914062 7.203125 -6.5 C 6.609375 -7.09375 5.882812 -7.390625 5.03125 -7.390625 Z M 5.03125 -7.390625 "/></g></g></g><g fill="#ffffff" fill-opacity="1"><g transform="translate(236.829416, 190.806194)"><g><path d="M 6.640625 0 L 5.0625 -2.625 C 4.976562 -2.613281 4.84375 -2.609375 4.65625 -2.609375 L 2.609375 -2.609375 L 2.609375 0 L 1.140625 0 L 1.140625 -8.671875 L 4.65625 -8.671875 C 5.757812 -8.671875 6.617188 -8.410156 7.234375 -7.890625 C 7.847656 -7.378906 8.15625 -6.65625 8.15625 -5.71875 C 8.15625 -5.019531 8 -4.429688 7.6875 -3.953125 C 7.375 -3.472656 6.929688 -3.125 6.359375 -2.90625 L 8.296875 0 Z M 2.609375 -3.921875 L 4.65625 -3.921875 C 6.0625 -3.921875 6.765625 -4.503906 6.765625 -5.671875 C 6.765625 -6.796875 6.0625 -7.359375 4.65625 -7.359375 L 2.609375 -7.359375 Z M 2.609375 -3.921875 "/></g></g></g><g fill="#ffffff" fill-opacity="1"><g transform="translate(255.707373, 190.806194)"><g><path d="M 8.65625 0 L 7.21875 0 L 2.609375 -6.21875 L 2.609375 0 L 1.140625 0 L 1.140625 -8.671875 L 2.578125 -8.671875 L 7.21875 -2.4375 L 7.21875 -8.671875 L 8.65625 -8.671875 Z M 8.65625 0 "/></g></g></g></svg>